<svg width="308" height="126" viewBox="0 0 308 126" fill="none" xmlns="http://www.w3.org/2000/svg">
<g clip-path="url(#clip0_322_5037)">
<g clip-path="url(#clip1_322_5037)">
<path d="M150.754 44.4282L164.646 43.4925C164.963 45.8592 165.544 47.6206 166.495 48.8865C168.027 50.868 170.14 51.8587 172.939 51.8587C174.999 51.8587 176.637 51.3634 177.746 50.3176C178.802 49.492 179.436 48.171 179.436 46.7949C179.436 45.4739 178.855 44.208 177.852 43.3824C176.795 42.3916 174.313 41.4009 170.404 40.5202C164.012 39.0341 159.417 37.0526 156.723 34.5207C154.029 32.1539 152.497 28.6863 152.603 24.9985C152.603 22.4666 153.342 19.9347 154.716 17.8432C156.3 15.4764 158.466 13.605 161.054 12.5592C163.854 11.2932 167.763 10.6327 172.675 10.6327C178.697 10.6327 183.292 11.7886 186.462 14.1554C189.631 16.4671 191.533 20.2099 192.114 25.3288L178.38 26.1544C178.01 23.9528 177.271 22.3566 176.056 21.3108C174.841 20.265 173.256 19.7696 171.196 19.7696C169.506 19.7696 168.238 20.1549 167.393 20.8704C166.601 21.5309 166.072 22.5217 166.125 23.6225C166.125 24.4481 166.548 25.2187 167.182 25.7141C167.868 26.3746 169.506 26.98 172.094 27.5304C178.486 28.9615 183.028 30.3926 185.828 31.8787C188.627 33.3648 190.635 35.1812 191.85 37.3278C193.117 39.5295 193.751 42.0614 193.698 44.6483C193.698 47.7306 192.853 50.813 191.163 53.3999C189.42 56.0969 186.99 58.1885 184.137 59.4545C181.127 60.8305 177.323 61.546 172.781 61.546C164.752 61.546 159.206 59.9498 156.089 56.7024C152.973 53.4549 151.124 49.3819 150.754 44.4282ZM3.32779 60.7204V11.5134H27.6787C32.1686 11.5134 35.6548 11.8987 38.0318 12.7243C40.356 13.4949 42.4161 15.0911 43.7894 17.2377C45.3213 19.6045 46.0608 22.3566 46.008 25.2187C46.1664 30.0624 43.7894 34.6858 39.7221 37.1077C38.1375 38.0434 36.3944 38.7039 34.5984 39.0341C35.919 39.4194 37.2395 40.0799 38.4016 40.8505C39.2996 41.621 40.0391 42.5017 40.7258 43.4374C41.5181 44.3731 42.2048 45.4189 42.7858 46.5197L49.864 60.7755H33.2779L25.4602 45.6391C24.4566 43.7126 23.6114 42.4467 22.8191 41.8412C21.7627 41.0706 20.4949 40.6853 19.2272 40.6853H17.9595V60.6654H3.32779V60.7204ZM17.9595 31.4384H24.1397C25.4602 31.3283 26.7279 31.1081 27.9957 30.7779C28.9465 30.6128 29.7916 30.0624 30.3726 29.2367C31.7988 27.2552 31.5876 24.4481 29.8444 22.7418C28.8936 21.9162 27.0449 21.4759 24.4038 21.4759H17.9595V31.4384ZM0 102.882L13.8922 101.946C14.2091 104.313 14.7902 106.075 15.741 107.34C17.22 109.322 19.3857 110.368 22.1852 110.368C24.2453 110.368 25.8828 109.872 26.992 108.827C28.0485 107.946 28.6823 106.68 28.6823 105.304C28.6823 103.983 28.1013 102.717 27.0977 101.891C26.0412 100.901 23.5586 99.9099 19.597 99.0292C13.2055 97.5431 8.60999 95.5616 5.91606 93.0297C3.22214 90.6629 1.6903 87.1953 1.79595 83.5075C1.79595 80.9756 2.53546 78.4437 3.90883 76.3522C5.49349 73.9854 7.65919 72.114 10.2475 71.0682C13.047 69.8022 16.9559 69.1417 21.8683 69.1417C27.89 69.1417 32.4855 70.2976 35.6548 72.6644C38.8242 75.0312 40.6729 78.719 41.254 83.8378L27.5203 84.6634C27.1505 82.4618 26.411 80.8656 25.1961 79.8198C24.034 78.774 22.3965 78.2786 20.3365 78.3337C18.6462 78.3337 17.3784 78.719 16.5333 79.4895C15.6881 80.15 15.2127 81.1408 15.2656 82.2416C15.2656 83.0672 15.6881 83.8378 16.322 84.3332C17.0087 84.9937 18.6462 85.5991 21.2344 86.1495C27.6259 87.5806 32.1686 89.0117 34.9682 90.4978C37.7677 91.9839 39.775 93.8003 40.9899 95.9469C42.2576 98.1486 42.8915 100.68 42.8915 103.212C42.8915 106.295 41.9935 109.322 40.356 111.909C38.6129 114.606 36.1831 116.698 33.3307 117.963C30.3198 119.34 26.5166 120.055 21.974 120.055C13.945 120.055 8.3987 118.459 5.2822 115.211C2.1657 111.909 0.422576 107.836 0 102.882H0Z" fill="#272AC1"/>
<path d="M70.2533 99.0292L83.0362 103.047C82.3495 106.405 80.9233 109.597 78.9689 112.404C77.173 114.881 74.796 116.808 72.102 118.074C69.3553 119.339 65.869 120 61.6433 120C56.5196 120 52.2938 119.229 49.0717 117.688C45.7967 116.147 42.9971 113.395 40.6201 109.487C38.2431 105.579 37.0811 100.57 37.0811 94.4608C37.0811 86.3147 39.1411 80.0399 43.3141 75.6917C47.487 71.3434 53.3502 69.1417 60.9566 69.1417C66.9255 69.1417 71.5738 70.4077 75.0073 72.8846C78.3879 75.4165 80.9233 79.2694 82.6136 84.4432L69.7251 87.4155C69.4081 86.2596 68.9327 85.1037 68.2989 84.113C67.5065 82.9571 66.5029 82.0765 65.288 81.416C64.0731 80.7555 62.6997 80.4803 61.3264 80.4803C57.9986 80.4803 55.4631 81.8563 53.72 84.6634C52.3994 86.6999 51.7128 89.9474 51.7128 94.3507C51.7128 99.7998 52.5051 103.543 54.0897 105.579C55.6744 107.616 57.8929 108.606 60.7981 108.606C63.5977 108.606 65.7106 107.781 67.1368 106.185C68.563 104.478 69.6194 102.112 70.2533 99.0292ZM100.098 69.9674H114.677V87.1953H130.629V69.9674H145.313V119.174H130.629V99.2494H114.677V119.174H100.098V69.9674V69.9674Z" fill="#272AC1"/>
<path d="M143.306 94.5709C143.306 86.5348 145.472 80.2601 149.75 75.8017C154.029 71.3434 160.051 69.0867 167.71 69.0867C175.58 69.0867 181.602 71.2884 185.881 75.6917C190.159 80.095 192.272 86.2596 192.272 94.1856C192.272 99.9649 191.321 104.643 189.473 108.331C187.677 111.964 184.877 114.936 181.444 116.918C177.904 118.954 173.52 120 168.291 120C162.956 120 158.572 119.119 155.085 117.358C151.493 115.487 148.535 112.569 146.581 108.992C144.415 105.139 143.306 100.35 143.306 94.5709ZM157.885 94.6259C157.885 99.5796 158.783 103.157 160.526 105.359C162.269 107.506 164.699 108.606 167.763 108.606C170.879 108.606 173.309 107.561 175.052 105.414C176.795 103.267 177.64 99.4696 177.64 93.9654C177.64 89.3419 176.742 85.9294 174.946 83.8378C173.151 81.6912 170.721 80.6454 167.657 80.6454C164.963 80.5353 162.375 81.7462 160.579 83.8928C158.783 86.0394 157.885 89.6171 157.885 94.6259V94.6259ZM207.221 94.5709C207.221 86.5348 209.386 80.2601 213.665 75.8017C217.944 71.3434 223.965 69.0867 231.624 69.0867C239.495 69.0867 245.569 71.2884 249.795 75.6917C254.021 80.095 256.187 86.2596 256.187 94.1856C256.187 99.9649 255.236 104.643 253.387 108.331C251.591 111.964 248.792 114.936 245.358 116.918C241.819 118.954 237.435 120 232.206 120C226.87 120 222.486 119.119 219 117.358C215.408 115.487 212.45 112.569 210.496 108.992C208.33 105.139 207.221 100.35 207.221 94.5709V94.5709ZM221.8 94.6259C221.8 99.5796 222.698 103.157 224.441 105.359C226.184 107.506 228.614 108.606 231.677 108.606C234.794 108.606 237.224 107.561 238.967 105.414C240.71 103.267 241.555 99.4696 241.555 93.9654C241.555 89.3419 240.657 85.9294 238.861 83.8378C237.065 81.6912 234.635 80.6454 231.572 80.6454C228.878 80.5353 226.237 81.7462 224.494 83.8928C222.698 86.0394 221.8 89.6171 221.8 94.6259V94.6259Z" fill="#272AC1"/>
<path d="M254.655 69.9674H269.234V107.065H292V119.174H254.602V69.9674H254.655Z" fill="#272AC1"/>
</g>
<path d="M247.066 62.2475C263.114 53.5268 268.062 38.7437 258.119 29.2286C248.175 19.7135 227.105 19.0696 211.057 27.7903C195.009 36.5111 190.061 51.2941 200.004 60.8092C209.948 70.3243 231.018 70.9683 247.066 62.2475Z" stroke="#272AC1" stroke-width="4" stroke-miterlimit="10"/>
<path d="M248.022 41.3515C248.072 42.2807 247.729 43.1957 246.996 44.0291C246.004 45.0999 244.731 46.0207 243.223 46.7456L243.223 46.7455L243.217 46.7487C240.072 48.3152 237.58 48.9314 235.645 48.6988L235.64 48.6983C233.776 48.4915 232.221 47.8711 231.033 46.9804L235.365 44.5088C235.959 44.9513 236.673 45.2798 237.424 45.4731L237.433 45.4756L237.443 45.4776C238.705 45.7506 240.036 45.5729 241.128 44.9754C241.854 44.6241 242.559 44.0994 242.86 43.3534C243.109 42.8023 243.012 42.2248 242.695 41.768C242.383 41.3169 241.864 40.9863 241.246 40.8379L241.227 40.8333C241.07 40.7954 240.853 40.7432 240.625 40.7409C239.835 40.6971 238.553 40.9306 236.77 41.4698C233.852 42.3361 231.609 42.6515 229.962 42.5329C228.371 42.4141 226.952 41.8228 226.141 40.9089L226.133 40.8997L226.125 40.891C225.519 40.2724 225.223 39.5576 225.17 38.8495C225.174 38.0234 225.473 37.1974 226.128 36.5066C227.181 35.4274 228.459 34.5055 230.02 33.7816L230.02 33.7818L230.033 33.7756C232.416 32.5891 234.475 32.0372 236.22 32.0372C237.721 32.0372 239.146 32.476 240.503 33.3983L236.27 35.8061C235.687 35.383 234.952 35.1371 234.212 35.0637C233.342 34.9773 232.412 35.1238 231.643 35.5579L231.619 35.5715L231.597 35.5878L231.466 35.6821C230.823 35.9721 230.341 36.413 230.058 36.9734C229.752 37.5642 229.997 38.1674 230.379 38.5525L230.389 38.5625L230.399 38.572C230.707 38.8492 231.161 39.0693 231.693 39.0753C231.993 39.0986 232.359 39.056 232.77 38.9714C233.197 38.8834 233.705 38.7427 234.291 38.5528C237.166 37.6822 239.325 37.1932 240.78 37.0317L240.78 37.0318L240.79 37.0305C241.998 36.8722 243.253 36.9527 244.389 37.304L244.392 37.3047C245.411 37.6144 246.254 38.1518 246.821 38.7844L246.828 38.7917L246.835 38.7987C247.569 39.5556 247.972 40.4445 248.022 41.3515ZM248.022 41.3515C248.022 41.3512 248.022 41.351 248.022 41.3507L248.522 41.3241M248.022 41.3515C248.022 41.3516 248.022 41.3517 248.022 41.3518L248.522 41.3241M248.522 41.3241C248.579 42.4069 248.175 43.448 247.367 44.3643L244.537 36.8263C245.634 37.1594 246.558 37.7425 247.193 38.4505C248.002 39.2834 248.464 40.2829 248.522 41.3241ZM221.257 50.1203L213.668 42.4193L218.504 39.9783L225.351 47.0038L225.357 47.0096L225.363 47.0152C226.531 48.1379 227.417 49.3349 228.082 50.6476C228.416 51.5285 228.322 52.4847 227.82 53.3559C227.129 54.5028 226.002 55.4814 224.46 56.1963L224.452 56.1996L224.445 56.2032C222.569 57.1462 221.01 57.6621 219.701 57.8194L219.699 57.8197C218.454 57.9758 217.145 57.8209 215.939 57.4265C214.831 57.0264 213.854 56.4934 213.062 55.8348L217.149 53.0931C217.535 53.4678 217.986 53.8045 218.472 54.0845L218.482 54.0904L218.492 54.0959C218.964 54.339 219.505 54.4846 220.107 54.4846C220.594 54.4846 221.073 54.3403 221.43 54.1404C222.096 53.8423 222.718 53.1892 222.626 52.3862L222.622 52.3552L222.614 52.3248C222.419 51.5261 221.967 50.7311 221.257 50.1203Z" fill="#272AC1" stroke="#272AC1"/>
</g>
<defs>
<clipPath id="clip0_322_5037">
<rect width="308" height="126" fill="white"/>
</clipPath>
<clipPath id="clip1_322_5037">
<rect width="292" height="113" fill="white" transform="translate(0 7)"/>
</clipPath>
</defs>
</svg>
