<svg width="24" height="24" viewBox="0 0 24 24" fill="none" xmlns="http://www.w3.org/2000/svg">
<path d="M14 14.252V22H4C3.99969 20.7789 4.27892 19.5739 4.8163 18.4774C5.35368 17.3809 6.13494 16.4219 7.10022 15.674C8.0655 14.9261 9.18918 14.4091 10.3852 14.1626C11.5811 13.9162 12.8177 13.9467 14 14.252V14.252ZM12 13C8.685 13 6 10.315 6 7C6 3.685 8.685 1 12 1C15.315 1 18 3.685 18 7C18 10.315 15.315 13 12 13ZM19.418 17H23.004V19H19.418L21.247 20.828L19.833 22.243L15.59 18L19.833 13.757L21.247 15.172L19.418 17Z" fill="#4F4F4F"/>
</svg>
